<?xml version="1.0" encoding="utf-8"?><svg version="1.1" xmlns="http://www.w3.org/2000/svg" xmlns:xlink="http://www.w3.org/1999/xlink" x="0px" y="0px" viewBox="0 0 1366 768" style="enable-background:new 0 0 1366 768;" xml:space="preserve"><style type="text/css">.st0{fill:none;stroke:#B4B4B4;stroke-width:30;stroke-linecap:round;stroke-miterlimit:10;}.st1{fill:none;stroke:#201600;stroke-width:15;stroke-linecap:round;stroke-miterlimit:10;}</style><g id="Layer_1"></g><g id="Layer_2"></g><g id="Layer_3"></g><g id="Layer_4"><g><path class="st0" d="M514.4,268.5H361.9c-19.6,0-35.5,15.9-35.5,35.5V598c0,19.6,15.9,35.5,35.5,35.5H916c19.6,0,35.5-15.9,35.5-35.5V304c0-19.6-15.9-35.5-35.5-35.5H766.3"/><path class="st0" d="M766.3,268c0,0-32-89.3-35.6-89.3H550c-3.5,0-35.6,89.8-35.6,89.8"/><line class="st0" x1="766.3" y1="268.5" x2="766.3" y2="268"/><path class="st0" d="M514.4,268.5"/></g><path class="st1" d="M831.5,203"/><path class="st1" d="M879.5,98"/><g><line class="st0" x1="1001.3" y1="83.8" x2="1001.3" y2="249.2"/><line class="st0" x1="913.5" y1="167.8" x2="1079" y2="167.8"/></g><circle class="st0" cx="640.8" cy="435.2" r="145.2"/></g><g id="Layer_5"></g><g id="Layer_6"></g></svg>